# xmcd
#
# Track frame offsets: 
#        150
#        20696
#        38328
#        59353
#        80098
#        103873
#        122028
#        139344
#        159132
#        173750
#        190193
#        208494
#        229677
#        250935
#
# Disc length: 3620 seconds
#
# Revision: 13
# Processed by: cddbd v1.5.2PL0 Copyright (c) Steve Scherf et al.
# Submitted via: ExactAudioCopy v1.0b3
#
DISCID=bf0e220e
DTITLE=Various Artist - THE BEST OF DETECTIVE CONAN 3 disc1
DYEAR=2008
DGENRE=Anime
TTITLE0=ZARD - 翼を広げて [第12作 劇場版名探偵コナン 戦慄の楽譜]主題歌
TTITLE1=愛内里菜&三枝夕夏 - 七つの海を渡る風のように [第11作 劇場版名探偵コナン 紺碧の棺]主題歌
TTITLE2=B'z - ゆるぎないものひとつ [第10作 劇場版名探偵コナン 探偵たちの鎮魂歌]主題歌
TTITLE3=ZARD - 夏を待つセイル(帆)のように [第09作 劇場版名探偵コナン 水平線上の陰謀]主題歌
TTITLE4=愛内里菜 - Dream×Dream [名探偵コナン 銀翼の奇術師MT]
TTITLE5=愛内里菜 - START [名探偵コナン 356話～OP]
TTITLE6=ZARD - 星のかがやきよ [名探偵コナン 394話～OP]
TTITLE7=倉木麻衣 - Growing of my heart [名探偵コナン 415話～OP]
TTITLE8=B'z - 衝動 [名探偵コナン 425話～OP]
TTITLE9=愛内里菜、三枝夕夏（コーラス：スパークリング☆ポイント） - 100もの扉 [名探偵コナン 438話～OP]
TTITLE10=三枝夕夏 IN db - 雲に乗って [名探偵コナン 457話～OP]
TTITLE11=GARNET CROW - 涙のイエスタデー [名探偵コナン 476話～OP]
TTITLE12=ZARD - グロリアス マインド [名探偵コナン 487話～OP]
TTITLE13=ZARD - 愛は暗闇の中で [名探偵コナン 491話～OP]
EXTD=
EXTT0=第12作 劇場版名探偵コナン 「戦慄の楽譜」主題歌
EXTT1=第11作 劇場版名探偵コナン 「紺碧の棺」主題歌
EXTT2=第10作 劇場版名探偵コナン 「探偵たちの鎮魂歌」主題歌
EXTT3=第09作 劇場版名探偵コナン 「水平線上の陰謀」主題歌
EXTT4=名探偵コナン 銀翼の奇術師MT
EXTT5=名探偵コナン 356話～OP
EXTT6=名探偵コナン 394話～OP
EXTT7=名探偵コナン 415話～OP
EXTT8=名探偵コナン 425話～OP
EXTT9=名探偵コナン 438話～OP
EXTT10=名探偵コナン 457話～OP
EXTT11=名探偵コナン 476話～OP
EXTT12=名探偵コナン 487話～OP
EXTT13=名探偵コナン 491話～OP
PLAYORDER=
